<?xml version="1.0" encoding="utf-8"?>
<!-- Generator: Adobe Illustrator 18.0.0, SVG Export Plug-In . SVG Version: 6.00 Build 0)  -->
<!DOCTYPE svg PUBLIC "-//W3C//DTD SVG 1.1//EN" "http://www.w3.org/Graphics/SVG/1.1/DTD/svg11.dtd">
<svg version="1.1" id="Icon_Set" xmlns="http://www.w3.org/2000/svg" xmlns:xlink="http://www.w3.org/1999/xlink" x="0px" y="0px"
	 viewBox="0 0 256 256" style="enable-background:new 0 0 256 256;" xml:space="preserve">
<style type="text/css">
	.st0{fill:#4C4372;}
	.st1{fill:#F0C48A;}
	.st2{fill:#FD919E;}
	.st3{fill:#D3E6F8;}
	.st4{fill:#A4CFF2;}
	.st5{fill:#FFFFFF;}
	.st6{fill:#7BABF1;}
	.st7{fill:#E8677D;}
</style>
<g>
	<g>
		<g>
			<circle class="st1" cx="128" cy="128" r="103.5"/>
		</g>
	</g>
	<g>
		<polygon class="st3" points="128,110.544 78.142,152.754 78.142,221.206 177.859,221.206 177.859,152.754 		"/>
	</g>
	<g>
		<polygon class="st4" points="164.758,221.206 177.859,221.206 177.859,152.754 164.758,141.663 		"/>
	</g>
	<g>
		<g>
			<rect x="98.792" y="147.839" class="st5" width="20.858" height="20.858"/>
		</g>
		<g>
			<rect x="136.351" y="147.839" class="st5" width="20.858" height="20.858"/>
		</g>
	</g>
	<g>
		<rect x="111.02" y="178.141" class="st2" width="33.961" height="43.064"/>
	</g>
	<g>
		<path class="st6" d="M203.57,156.856l-25.711-21.767V94.972h-21.57v21.857l-23.934-20.262c-2.514-2.128-6.197-2.127-8.711,0
			L52.43,156.856c-2.841,2.405-3.195,6.659-0.789,9.5c2.405,2.842,6.659,3.195,9.5,0.79L128,110.544l66.859,56.602
			c1.267,1.072,2.814,1.596,4.352,1.596c1.914,0,3.816-0.811,5.148-2.386C206.765,163.515,206.412,159.262,203.57,156.856z"/>
	</g>
	<g>
		<path class="st0" d="M177.859,224.206H78.142c-1.657,0-3-1.343-3-3v-68.452c0-0.882,0.388-1.72,1.062-2.29l49.858-42.209
			c1.119-0.947,2.758-0.947,3.877,0l49.859,42.209c0.673,0.57,1.062,1.407,1.062,2.29v68.452
			C180.859,222.862,179.517,224.206,177.859,224.206z M81.142,218.206h93.718v-64.061L128,114.475l-46.858,39.67V218.206z"/>
	</g>
	<g>
		<path class="st0" d="M199.211,171.742c-2.299,0-4.533-0.819-6.29-2.307L128,114.475l-64.921,54.96
			c-1.757,1.487-3.991,2.307-6.291,2.307c-2.873,0-5.584-1.257-7.438-3.448c-1.681-1.985-2.488-4.507-2.273-7.1
			c0.215-2.593,1.428-4.947,3.414-6.627l71.215-60.289c1.757-1.487,3.993-2.306,6.294-2.306c2.301,0,4.537,0.819,6.293,2.306
			l18.995,16.081V94.972c0-1.657,1.343-3,3-3h21.57c1.657,0,3,1.343,3,3v38.727l24.649,20.869c1.985,1.681,3.198,4.035,3.413,6.628
			c0.216,2.593-0.592,5.114-2.272,7.1C204.795,170.485,202.084,171.742,199.211,171.742z M128,107.544
			c0.689,0,1.379,0.237,1.938,0.71l66.859,56.602c0.865,0.732,1.79,0.886,2.413,0.886c1.104,0,2.146-0.482,2.858-1.324
			c0.646-0.763,0.956-1.731,0.873-2.728c-0.082-0.996-0.548-1.899-1.311-2.544l-25.711-21.768c-0.673-0.57-1.062-1.407-1.062-2.29
			V97.972h-15.57v18.857c0,1.168-0.678,2.23-1.738,2.722c-1.063,0.493-2.309,0.322-3.2-0.432l-23.934-20.262
			c-1.35-1.142-3.486-1.142-4.834,0l-71.214,60.289c-0.763,0.646-1.228,1.55-1.311,2.545c-0.083,0.996,0.228,1.964,0.873,2.727
			c0.712,0.842,1.754,1.324,2.858,1.324c0.624,0,1.549-0.154,2.414-0.886l66.859-56.602
			C126.621,107.781,127.311,107.544,128,107.544z"/>
	</g>
	<g>
		<path class="st0" d="M144.98,224.206H111.02c-1.657,0-3-1.343-3-3v-43.064c0-1.657,1.343-3,3-3h33.961c1.657,0,3,1.343,3,3v43.064
			C147.98,222.862,146.638,224.206,144.98,224.206z M114.02,218.206h27.961v-37.064H114.02V218.206z"/>
	</g>
	<g>
		<g>
			<path class="st0" d="M119.65,171.697H98.792c-1.657,0-3-1.343-3-3v-20.858c0-1.657,1.343-3,3-3h20.858c1.657,0,3,1.343,3,3
				v20.858C122.65,170.354,121.307,171.697,119.65,171.697z M101.792,165.697h14.858v-14.858h-14.858V165.697z"/>
		</g>
		<g>
			<path class="st0" d="M157.209,171.697h-20.858c-1.657,0-3-1.343-3-3v-20.858c0-1.657,1.343-3,3-3h20.858c1.657,0,3,1.343,3,3
				v20.858C160.209,170.354,158.866,171.697,157.209,171.697z M139.351,165.697h14.858v-14.858h-14.858V165.697z"/>
		</g>
	</g>
	<g>
		<path class="st0" d="M158.358,50.369c-0.768,0-1.535-0.293-2.121-0.878c-15.571-15.571-40.904-15.57-56.474,0
			c-1.171,1.172-3.071,1.172-4.242,0c-1.172-1.171-1.172-3.071,0-4.242c17.908-17.91,47.051-17.908,64.958,0
			c1.172,1.172,1.172,3.071,0,4.243C159.894,50.076,159.126,50.369,158.358,50.369z"/>
	</g>
	<g>
		<path class="st0" d="M106.701,59.428c-0.768,0-1.536-0.293-2.121-0.878c-1.172-1.172-1.172-3.071,0-4.243
			c6.256-6.256,14.574-9.702,23.421-9.702c8.848,0,17.165,3.445,23.421,9.702c1.172,1.171,1.172,3.071,0,4.242
			c-1.172,1.172-3.07,1.172-4.242,0c-5.123-5.123-11.934-7.944-19.179-7.944c-7.245,0-14.055,2.821-19.178,7.944
			C108.236,59.135,107.468,59.428,106.701,59.428z"/>
	</g>
	<g>
		<path class="st0" d="M140.327,68.4c-0.768,0-1.536-0.293-2.121-0.879c-2.727-2.726-6.351-4.228-10.206-4.228
			c-3.855,0-7.479,1.501-10.206,4.228c-1.172,1.172-3.072,1.171-4.243,0c-1.172-1.172-1.172-3.071,0-4.243
			c3.859-3.86,8.991-5.985,14.449-5.985s10.59,2.125,14.448,5.985c1.172,1.171,1.172,3.071,0,4.243
			C141.862,68.107,141.095,68.4,140.327,68.4z"/>
	</g>
	<g>
		<circle class="st0" cx="128" cy="77.727" r="7.818"/>
	</g>
</g>
</svg>
